{"asset":{"version":"2.0","generator":"codex-fighter-plane"},"scene":0,"scenes":[{"nodes":[7]}],"nodes":[{"name":"Body","mesh":0,"translation":[0.0,0.0,0.0]},{"name":"Engine","mesh":1,"translation":[0.0,0.0,9.9]},{"name":"Cockpit","mesh":2,"translation":[0.0,0.55,0.8]},{"name":"RightWing","mesh":3,"translation":[-5.6,0.0,0.0]},{"name":"LeftWing","mesh":4,"translation":[5.6,0.0,0.0]},{"name":"PitchTail","mesh":5,"translation":[0.0,0.0,-7.0]},{"name":"YawTail","mesh":6,"translation":[0.0,1.3,-7.0]},{"name":"FighterPlane","children":[0,1,2,3,4,5,6]}],"meshes":[{"name":"Body","primitives":[{"attributes":{"POSITION":0,"NORMAL":1,"TEXCOORD_0":2},"indices":3,"material":0}]},{"name":"Engine","primitives":[{"attributes":{"POSITION":4,"NORMAL":5,"TEXCOORD_0":6},"indices":7,"material":1}]},{"name":"Cockpit","primitives":[{"attributes":{"POSITION":8,"NORMAL":9,"TEXCOORD_0":10},"indices":11,"material":2}]},{"name":"RightWing","primitives":[{"attributes":{"POSITION":12,"NORMAL":13,"TEXCOORD_0":14},"indices":15,"material":3}]},{"name":"LeftWing","primitives":[{"attributes":{"POSITION":16,"NORMAL":17,"TEXCOORD_0":18},"indices":19,"material":4}]},{"name":"PitchTail","primitives":[{"attributes":{"POSITION":20,"NORMAL":21,"TEXCOORD_0":22},"indices":23,"material":5}]},{"name":"YawTail","primitives":[{"attributes":{"POSITION":24,"NORMAL":25,"TEXCOORD_0":26},"indices":27,"material":6}]}],"materials":[{"name":"Body","doubleSided":true,"pbrMetallicRoughness":{"baseColorFactor":[0.7,0.7,0.7,1.0],"metallicFactor":0.05,"roughnessFactor":0.7}},{"name":"Engine","doubleSided":true,"pbrMetallicRoughness":{"baseColorFactor":[0.7,0.7,0.7,1.0],"metallicFactor":0.05,"roughnessFactor":0.7}},{"name":"Cockpit","doubleSided":true,"pbrMetallicRoughness":{"baseColorFactor":[0.7,0.7,0.7,1.0],"metallicFactor":0.05,"roughnessFactor":0.7}},{"name":"RightWing","doubleSided":true,"pbrMetallicRoughness":{"baseColorFactor":[0.7,0.7,0.7,1.0],"metallicFactor":0.05,"roughnessFactor":0.7}},{"name":"LeftWing","doubleSided":true,"pbrMetallicRoughness":{"baseColorFactor":[0.7,0.7,0.7,1.0],"metallicFactor":0.05,"roughnessFactor":0.7}},{"name":"PitchTail","doubleSided":true,"pbrMetallicRoughness":{"baseColorFactor":[0.7,0.7,0.7,1.0],"metallicFactor":0.05,"roughnessFactor":0.7}},{"name":"YawTail","doubleSided":true,"pbrMetallicRoughness":{"baseColorFactor":[0.7,0.7,0.7,1.0],"metallicFactor":0.05,"roughnessFactor":0.7}}],"buffers":[{"uri":"fighter_plane.bin","byteLength":6384}],"bufferViews":[{"buffer":0,"byteOffset":0,"byteLength":288,"target":34962},{"buffer":0,"byteOffset":288,"byteLength":288,"target":34962},{"buffer":0,"byteOffset":576,"byteLength":192,"target":34962},{"buffer":0,"byteOffset":768,"byteLength":144,"target":34963},{"buffer":0,"byteOffset":912,"byteLength":288,"target":34962},{"buffer":0,"byteOffset":1200,"byteLength":288,"target":34962},{"buffer":0,"byteOffset":1488,"byteLength":192,"target":34962},{"buffer":0,"byteOffset":1680,"byteLength":144,"target":34963},{"buffer":0,"byteOffset":1824,"byteLength":288,"target":34962},{"buffer":0,"byteOffset":2112,"byteLength":288,"target":34962},{"buffer":0,"byteOffset":2400,"byteLength":192,"target":34962},{"buffer":0,"byteOffset":2592,"byteLength":144,"target":34963},{"buffer":0,"byteOffset":2736,"byteLength":288,"target":34962},{"buffer":0,"byteOffset":3024,"byteLength":288,"target":34962},{"buffer":0,"byteOffset":3312,"byteLength":192,"target":34962},{"buffer":0,"byteOffset":3504,"byteLength":144,"target":34963},{"buffer":0,"byteOffset":3648,"byteLength":288,"target":34962},{"buffer":0,"byteOffset":3936,"byteLength":288,"target":34962},{"buffer":0,"byteOffset":4224,"byteLength":192,"target":34962},{"buffer":0,"byteOffset":4416,"byteLength":144,"target":34963},{"buffer":0,"byteOffset":4560,"byteLength":288,"target":34962},{"buffer":0,"byteOffset":4848,"byteLength":288,"target":34962},{"buffer":0,"byteOffset":5136,"byteLength":192,"target":34962},{"buffer":0,"byteOffset":5328,"byteLength":144,"target":34963},{"buffer":0,"byteOffset":5472,"byteLength":288,"target":34962},{"buffer":0,"byteOffset":5760,"byteLength":288,"target":34962},{"buffer":0,"byteOffset":6048,"byteLength":192,"target":34962},{"buffer":0,"byteOffset":6240,"byteLength":144,"target":34963}],"accessors":[{"bufferView":0,"componentType":5126,"count":24,"type":"VEC3","min":[-1.4,-0.6,-9.0],"max":[1.4,0.6,9.0]},{"bufferView":1,"componentType":5126,"count":24,"type":"VEC3"},{"bufferView":2,"componentType":5126,"count":24,"type":"VEC2","min":[0,0],"max":[1,1]},{"bufferView":3,"componentType":5125,"count":36,"type":"SCALAR"},{"bufferView":4,"componentType":5126,"count":24,"type":"VEC3","min":[-0.8,-0.5,-1.4],"max":[0.8,0.5,1.4]},{"bufferView":5,"componentType":5126,"count":24,"type":"VEC3"},{"bufferView":6,"componentType":5126,"count":24,"type":"VEC2","min":[0,0],"max":[1,1]},{"bufferView":7,"componentType":5125,"count":36,"type":"SCALAR"},{"bufferView":8,"componentType":5126,"count":24,"type":"VEC3","min":[-0.85,-0.425,-0.9],"max":[0.85,0.425,0.9]},{"bufferView":9,"componentType":5126,"count":24,"type":"VEC3"},{"bufferView":10,"componentType":5126,"count":24,"type":"VEC2","min":[0,0],"max":[1,1]},{"bufferView":11,"componentType":5125,"count":36,"type":"SCALAR"},{"bufferView":12,"componentType":5126,"count":24,"type":"VEC3","min":[-5.8,-0.17,-1.2],"max":[5.8,0.17,1.2]},{"bufferView":13,"componentType":5126,"count":24,"type":"VEC3"},{"bufferView":14,"componentType":5126,"count":24,"type":"VEC2","min":[0,0],"max":[1,1]},{"bufferView":15,"componentType":5125,"count":36,"type":"SCALAR"},{"bufferView":16,"componentType":5126,"count":24,"type":"VEC3","min":[-5.8,-0.17,-1.2],"max":[5.8,0.17,1.2]},{"bufferView":17,"componentType":5126,"count":24,"type":"VEC3"},{"bufferView":18,"componentType":5126,"count":24,"type":"VEC2","min":[0,0],"max":[1,1]},{"bufferView":19,"componentType":5125,"count":36,"type":"SCALAR"},{"bufferView":20,"componentType":5126,"count":24,"type":"VEC3","min":[-5.2,-0.15,-0.9],"max":[5.2,0.15,0.9]},{"bufferView":21,"componentType":5126,"count":24,"type":"VEC3"},{"bufferView":22,"componentType":5126,"count":24,"type":"VEC2","min":[0,0],"max":[1,1]},{"bufferView":23,"componentType":5125,"count":36,"type":"SCALAR"},{"bufferView":24,"componentType":5126,"count":24,"type":"VEC3","min":[-0.25,-1.5,-0.9],"max":[0.25,1.5,0.9]},{"bufferView":25,"componentType":5126,"count":24,"type":"VEC3"},{"bufferView":26,"componentType":5126,"count":24,"type":"VEC2","min":[0,0],"max":[1,1]},{"bufferView":27,"componentType":5125,"count":36,"type":"SCALAR"}]}